<?xml version="1.0" encoding="utf-8"?>
<!-- Generator: Adobe Illustrator 19.1.0, SVG Export Plug-In . SVG Version: 6.00 Build 0)  -->
<!DOCTYPE svg PUBLIC "-//W3C//DTD SVG 1.1//EN" "http://www.w3.org/Graphics/SVG/1.1/DTD/svg11.dtd">
<svg version="1.1" id="Layer_1" xmlns="http://www.w3.org/2000/svg" xmlns:xlink="http://www.w3.org/1999/xlink" x="0px" y="0px"
	 viewBox="0 0 199.3 120.8" enable-background="new 0 0 199.3 120.8" xml:space="preserve">
<g>
	<g>
		<path fill="#FFFFFF" d="M48,35.9c-5-5.7-14.6-8.6-28.7-8.6h-5.9H3.2c-2.2,0-3.2,1.2-3.2,3.5V57c0,0.5,0.1,0.8,0.1,1.2
			c0,0.1,0.2,0.6,0.3,0.8c0.5,1,1.5,1.5,3,1.5c0,0,0.1,0,0.1,0h7c0,0,0,0,0.1,0c2,0,2.9-1.2,2.9-3.4V38.7h5c9.5,0,15.7,1.8,18.5,5.3
			c2.8,3.5,4.2,9,4.2,16.4v0.1c0,7.3-1.4,12.8-4.2,16.3c-2.8,3.6-9,5.3-18.5,5.3h-2.9h-2.1h-10c-2.3,0-3.5,1-3.5,3v5
			c0,0.5,0.1,0.9,0.2,1.3c0,0.2,0.1,0.3,0.2,0.5c0.1,0.2,0.2,0.3,0.2,0.4c0.2,0.4,0.5,0.7,0.9,0.9c0,0,0,0,0,0
			c0.1,0.1,0.2,0.2,0.4,0.2c0.1,0,0.2,0,0.3,0.1c0.3,0.1,0.6,0.1,1,0.1h0.2h15.9c13.9,0,23.3-2.8,28.4-8.4c0.1-0.1,0.2-0.2,0.3-0.3
			c5-5.8,7.5-13.9,7.5-24.4c0,0,0-0.1,0-0.1C55.5,49.8,53,41.6,48,35.9"/>
		<path fill="#FFFFFF" d="M151.3,84.9c5,5.7,14.6,8.6,28.7,8.6h5.9h10.2c2.2,0,3.2-1.2,3.2-3.5V63.9c0-0.5-0.1-0.8-0.1-1.2
			c0-0.1-0.2-0.6-0.3-0.8c-0.5-1-1.5-1.5-3-1.5c0,0-0.1,0-0.1,0h-7c0,0,0,0,0,0c-2,0-2.9,1.2-2.9,3.4v18.3h-5
			c-9.5,0-15.7-1.8-18.5-5.3c-2.8-3.5-4.2-9-4.2-16.4c0,0,0-0.1,0-0.1c0-7.3,1.4-12.8,4.2-16.3c2.8-3.6,9-5.3,18.5-5.3h2.9h2.1h10
			c2.3,0,3.5-1,3.5-3v-5c0-0.5-0.1-0.9-0.2-1.3c0-0.2-0.1-0.3-0.2-0.5c-0.1-0.2-0.2-0.3-0.2-0.4c-0.2-0.4-0.5-0.7-0.9-0.9
			c0,0,0,0,0,0c-0.1-0.1-0.2-0.2-0.4-0.2c-0.1,0-0.2,0-0.3-0.1c-0.3-0.1-0.6-0.1-1-0.1h-0.2H180c-13.9,0-23.3,2.8-28.4,8.4
			c-0.1,0.1-0.2,0.2-0.3,0.3c-5,5.8-7.5,13.9-7.5,24.4v0.1C143.8,71.1,146.3,79.2,151.3,84.9"/>
	</g>
	<path fill="#FFFFFF" d="M101.4,118.1c0,1.5-1.2,2.7-2.7,2.7H86.8c-1.5,0-2.7-1.2-2.7-2.7v-6c0-1.5,1.2-2.7,2.7-2.7h11.8
		c1.5,0,2.7,1.2,2.7,2.7V118.1z"/>
	<path fill="#FFFFFF" d="M115.2,8.7c0,1.5-1.2,2.7-2.7,2.7h-11.8c-1.5,0-2.7-1.2-2.7-2.7v-6c0-1.5,1.2-2.7,2.7-2.7h11.8
		c1.5,0,2.7,1.2,2.7,2.7V8.7z"/>
	<path fill="#FFFFFF" d="M123.5,90.8c0,1.5-1.2,2.7-2.7,2.7h-34c-1.5,0-2.7-1.2-2.7-2.7v-6c0-1.5,1.2-2.7,2.7-2.7h34
		c1.5,0,2.7,1.2,2.7,2.7V90.8z"/>
	<path fill="#FFFFFF" d="M115.2,36c0,1.5-1.2,2.7-2.7,2.7h-34c-1.5,0-2.7-1.2-2.7-2.7v-6c0-1.5,1.2-2.7,2.7-2.7h34
		c1.5,0,2.7,1.2,2.7,2.7V36z"/>
	<path fill="#FFFFFF" d="M123.5,63.4c0,1.5-1.2,2.7-2.7,2.7H78.5c-1.5,0-2.7-1.2-2.7-2.7v-6c0-1.5,1.2-2.7,2.7-2.7h42.3
		c1.5,0,2.7,1.2,2.7,2.7V63.4z"/>
</g>
</svg>
